<svg id="logo-red" xmlns="http://www.w3.org/2000/svg" width="138.121" height="71.296" viewBox="0 0 138.121 71.296">
  <g id="Group_1" data-name="Group 1">
    <path id="Path_7" data-name="Path 7" d="M10.02,262.694c.034.573.034,1.076.034,3.871v3.154c0,1.72,0,3.136-.088,3.889-.073.518-.161.913-.52.985a2.7,2.7,0,0,1-.537.073c-.108,0-.143.054-.143.107,0,.108.089.143.286.143.27,0,.68-.035,1.04-.035.376-.018.68-.018.717-.018.088,0,.7.053,1.487.107.77.054,1.721.107,2.49.107a7.111,7.111,0,0,0,5.429-2.061,7.307,7.307,0,0,0,1.937-5.052,6.409,6.409,0,0,0-1.738-4.552c-2.133-2.2-5.413-2.043-7.187-2.043-1.075,0-2.2.053-2.418.053-.09,0-1.22-.053-2.025-.053-.2,0-.287.037-.287.143,0,.071.071.108.143.108a3.5,3.5,0,0,1,.61.053C9.839,261.8,9.982,262.085,10.02,262.694Zm1.54,3.585c0-1.381,0-3.208.018-3.817a.324.324,0,0,1,.215-.359,4.809,4.809,0,0,1,1.165-.127c2.131,0,4.175.252,5.859,2.027a6.4,6.4,0,0,1,1.72,4.516A6.272,6.272,0,0,1,19.1,272.8a6.017,6.017,0,0,1-4.265,1.666c-2.114,0-2.815-.376-3.047-.717a3.89,3.89,0,0,1-.2-1.362c-.019-.341-.037-1.989-.037-3.888Z" transform="translate(-8.196 -218.446)" fill="#9e1d20"/>
    <path id="Path_8" data-name="Path 8" d="M70.58,268.324a1.863,1.863,0,0,1,.395-.036.134.134,0,0,0,.125-.126c0-.09-.071-.126-.251-.126-.466,0-1.218.036-1.326.036-.09,0-1-.036-1.7-.036-.179,0-.251.036-.251.126a.135.135,0,0,0,.125.126,5.08,5.08,0,0,1,.537.036c.521.072.609.357.628.841s.036.915.036,3.28v1.918a5.6,5.6,0,0,1-.9,3.69,3.234,3.234,0,0,1-2.437,1.076,3.072,3.072,0,0,1-2.347-.825c-.68-.608-1.164-1.523-1.164-3.725v-2.135c0-2.365,0-2.8.034-3.28.037-.5.127-.769.539-.841a1.854,1.854,0,0,1,.394-.036.156.156,0,0,0,.144-.126c0-.09-.09-.126-.27-.126-.466,0-1.45.036-1.6.036s-1.093-.036-1.81-.036c-.179,0-.249.036-.249.126a.151.151,0,0,0,.124.126,5.047,5.047,0,0,1,.537.036c.52.072.609.357.645.841s.036.915.036,3.28v2.239c0,2.222.609,3.278,1.38,4a4.921,4.921,0,0,0,3.278,1.077,4.778,4.778,0,0,0,3.3-1.111c1.255-1.075,1.471-2.922,1.471-4.57v-1.631c0-2.365-.018-2.8.018-3.28C70.06,268.663,70.15,268.414,70.58,268.324Z" transform="translate(-43.51 -223.089)" fill="#9e1d20"/>
    <path id="Path_9" data-name="Path 9" d="M142.253,274.666l2.009.037a.238.238,0,0,1,.214.09c.341.412,1.04,1.4,1.7,2.222a8.047,8.047,0,0,0,2.15,2.239,3.178,3.178,0,0,0,1.685.3H151c.288,0,.376-.034.376-.125a.138.138,0,0,0-.143-.126,2.98,2.98,0,0,1-2.312-1.11c-.913-.951-2.007-2.331-3.3-3.944a4.451,4.451,0,0,0,1.935-3.476,2.672,2.672,0,0,0-1.093-2.079,5.172,5.172,0,0,0-2.939-.663c-.484,0-1.81.036-1.972.036-.089,0-1.146-.036-1.863-.036-.18,0-.251.036-.251.126a.153.153,0,0,0,.126.126,5.068,5.068,0,0,1,.537.036c.52.072.61.322.644.841.037.484.037.915.037,3.28v2.689a31,31,0,0,1-.09,3.3c-.071.449-.108.736-.413.807a2.182,2.182,0,0,1-.483.072.121.121,0,0,0-.125.126c0,.09.089.125.251.125.484,0,1.54-.053,1.559-.053.071,0,1.075.053,1.936.053.178,0,.25-.053.25-.125a.112.112,0,0,0-.124-.126,5.6,5.6,0,0,1-.7-.072c-.484-.071-.574-.358-.626-.807-.072-.626-.072-1.809-.072-3.278v-.358C142.146,274.7,142.181,274.666,142.253,274.666Zm-.106-5.823a.2.2,0,0,1,.124-.18,6.952,6.952,0,0,1,1.13-.089c1.684,0,2.723,1.093,2.723,2.994a2.713,2.713,0,0,1-.95,2.328,2.044,2.044,0,0,1-1.183.27,5.359,5.359,0,0,1-1.739-.234.226.226,0,0,1-.106-.2Z" transform="translate(-99.326 -223.089)" fill="#9e1d20"/>
    <path id="Path_10" data-name="Path 10" d="M184.556,279.262a6.1,6.1,0,0,0,6.326-6.219c0-3.547-2.689-5.717-6.236-5.717a6.035,6.035,0,0,0-6.255,5.95A5.843,5.843,0,0,0,184.556,279.262Zm0-11.361c2.49,0,4.713,1.918,4.713,5.572,0,4.409-2.85,5.162-4.266,5.162-2.85,0-4.981-2.223-4.981-5.769C180.022,269.549,181.921,267.9,184.556,267.9Z" transform="translate(-126.434 -222.595)" fill="#9e1d20"/>
    <path id="Path_11" data-name="Path 11" d="M224.3,268.359a1.964,1.964,0,0,1,.573-.07.147.147,0,0,0,.162-.144c0-.072-.143-.107-.431-.107-.608,0-1.308.036-1.469.036-.2,0-1.092-.036-1.846-.036-.251,0-.411.017-.411.107a.137.137,0,0,0,.125.144,3.082,3.082,0,0,1,.61.053c.518.126.735.286,1.092,1.147l3.871,9.335c.3.735.413.933.592.933.161,0,.249-.233.681-1.149.358-.751,1.057-2.4,2.024-4.622.807-1.864,1.577-3.69,1.756-4.122.411-1.039.663-1.254.879-1.4a1.457,1.457,0,0,1,.751-.179c.126,0,.179-.073.179-.144s-.09-.107-.251-.107c-.465,0-1.147.036-1.234.036-.2,0-.915-.036-1.543-.036-.251,0-.357.036-.357.126,0,.072.089.126.178.126a1.862,1.862,0,0,1,.539.053.318.318,0,0,1,.215.321,2.65,2.65,0,0,1-.144.574c-.342,1.093-2.4,6.288-3.316,8.334l-2.974-7.67a6.368,6.368,0,0,1-.43-1.273A.252.252,0,0,1,224.3,268.359Z" transform="translate(-156.004 -223.089)" fill="#9e1d20"/>
    <path id="Path_12" data-name="Path 12" d="M275,278.24c.877.805,1.039.932,1.2.932.106,0,.124-.09.124-1.092l.038-8.926c0-.914.034-1.218.556-1.325a1.788,1.788,0,0,1,.375-.036.178.178,0,0,0,.178-.144c0-.09-.125-.108-.287-.108-.645,0-1.165.036-1.345.036s-.93-.036-1.648-.036c-.178,0-.3.017-.3.108a.126.126,0,0,0,.127.144,5.143,5.143,0,0,1,.771.07c.483.089.571.43.59,1.416l.161,7.634c-.483-.5-2.167-2.311-3.728-3.924-2.436-2.509-4.727-4.947-4.979-5.2-.164-.162-.432-.468-.611-.468-.126,0-.216.162-.216.771v8.728c0,1.378-.052,1.791-.448,1.9a2.509,2.509,0,0,1-.644.089.123.123,0,0,0-.126.126c0,.107.09.125.25.125.717,0,1.38-.053,1.524-.053s.77.053,1.666.053c.18,0,.288-.034.288-.125a.123.123,0,0,0-.125-.126,3.777,3.777,0,0,1-.788-.089c-.431-.109-.574-.484-.611-1.738l-.178-7.186c.483.537,2.257,2.4,4.085,4.317C272.563,275.857,274.84,278.1,275,278.24Z" transform="translate(-186.56 -222.595)" fill="#9e1d20"/>
    <path id="Path_13" data-name="Path 13" d="M315.05,278.428c-.055.449-.108.736-.414.807a2.181,2.181,0,0,1-.483.072.122.122,0,0,0-.125.126c0,.09.089.125.252.125.483,0,1.469-.053,1.558-.053.073,0,1.094.053,1.971.053.178,0,.252-.053.252-.125a.123.123,0,0,0-.127-.126,6.223,6.223,0,0,1-.716-.072c-.465-.071-.52-.358-.573-.807-.073-.626-.073-1.826-.073-3.3v-2.689c0-2.365,0-2.8.018-3.28.036-.538.126-.751.557-.841a1.758,1.758,0,0,1,.393-.036.155.155,0,0,0,.127-.126c0-.09-.073-.126-.25-.126-.486,0-1.507.036-1.58.036-.089,0-1.075-.036-1.595-.036-.179,0-.251.036-.251.126a.137.137,0,0,0,.125.126,2.842,2.842,0,0,1,.485.053c.342.072.467.3.5.823.035.484.035.915.035,3.28v2.689C315.138,276.6,315.121,277.8,315.05,278.428Z" transform="translate(-220.803 -223.089)" fill="#9e1d20"/>
    <path id="Path_14" data-name="Path 14" d="M335.356,347.561a2.279,2.279,0,0,0,1.226-1.155A2.544,2.544,0,0,1,335.356,347.561Z" transform="translate(-235.672 -277.63)" fill="#9e1d20"/>
    <path id="Path_15" data-name="Path 15" d="M337.666,342.627c.475.275.627.605.579.937A.874.874,0,0,0,337.666,342.627Z" transform="translate(-237.28 -275)" fill="#9e1d20"/>
    <path id="Path_16" data-name="Path 16" d="M146.907,287.208c-.18-1.427-1.3-2.2-2.2-2.961a18.136,18.136,0,0,0-6.606-2.572,52.111,52.111,0,0,0-15.414.6h-2.654c-2-2.165-3.475-4.114-4.331-5.194-.543-.687-2.914-3.545-3.325-3.994.341-.376,3.027-2.956,3.423-3.314a5.545,5.545,0,0,1,1.648-1.29,2.6,2.6,0,0,1,.879-.215c.125,0,.161-.054.161-.126s-.073-.108-.235-.108c-.394,0-1.432.036-1.521.036-.377,0-.86-.036-1.185-.036-.107,0-.178.036-.178.108a.168.168,0,0,0,.143.144c.127.018.2.108.2.3,0,.251-.411.645-.86,1.094-.591.61-3.4,3.386-3.655,3.674h-.071v-.915c0-2.365,0-2.8.034-3.28.036-.538.145-.751.555-.841a1.867,1.867,0,0,1,.394-.036.136.136,0,0,0,.127-.126c0-.09-.072-.126-.251-.126-.465,0-1.415.036-1.559.036-.089,0-1.057-.036-1.774-.036-.178,0-.251.036-.251.126a.155.155,0,0,0,.127.126,5.1,5.1,0,0,1,.537.036c.521.072.609.322.646.841.036.484.036.915.036,3.28v2.689a30.5,30.5,0,0,1-.091,3.3c-.069.449-.106.736-.411.807a2.2,2.2,0,0,1-.483.072.122.122,0,0,0-.126.126c0,.09.09.125.25.125.484,0,1.434-.053,1.56-.053s1.075.053,1.847.053c.178,0,.25-.053.25-.125a.123.123,0,0,0-.127-.126,4.4,4.4,0,0,1-.609-.072c-.484-.071-.555-.358-.609-.807-.071-.626-.071-1.826-.071-3.3v-1.49h.071c.553.659,5.066,5.753,7.712,8.632H54.75l-2.764-1.1c-2.153-.79-4.235-1.706-6.359-2.408a3.214,3.214,0,0,0,1.241-2.565c0-1.719-1.577-2.813-2.777-3.173a3.6,3.6,0,0,0,1.594-2.669c0-.808-.68-2.33-3.315-2.33-.733,0-1.469.036-1.844.036-.09,0-1.111-.036-1.828-.036-.179,0-.251.036-.251.126,0,.053.072.09.126.09a4.934,4.934,0,0,1,.538.036c.518.07.609.358.644.877.036.484.036.915.036,3.28v2.689c0,1,0,1.868-.029,2.522a14.5,14.5,0,0,0-2.1.111c-2.546.388-4.761,1.99-5.314,3.488a5.281,5.281,0,0,0-.254,1.023H9.359v.785H136.293v-.785h-8.547l.2-.026c5.065-.736,10.371-.548,14.954,1.7,2.075.9,4.379,3.665,2.311,5.127a14.337,14.337,0,0,1-7.2,1.85,19.922,19.922,0,0,1-10.871-2.6h9.149v-.785H9.359v.785h26.55c.077.045.155.092.231.134,5.953,3.307,20.43,2.87,30.606,2.576q4.746-.315,9.477-.782c2.554.782,5.125,1.507,7.726,2.133a59.737,59.737,0,0,0,13.821,1.989,42.324,42.324,0,0,0,6.407-.4c.479-.063,1.062-.151,1.656-.259-.6.1-1.206.185-1.809.25a64.309,64.309,0,0,1-7.723.2,67.372,67.372,0,0,1-15.2-2.6c-1.529-.418-3.047-.872-4.561-1.339q7.68-.761,15.32-1.9H126.3a28.285,28.285,0,0,0,4.04,2c4.6,1.607,9.984,1.844,14.423-.16C145.772,289.638,147.048,288.683,146.907,287.208ZM41.153,268.753c0-.09.053-.126.2-.161a4.549,4.549,0,0,1,.806-.073,2.238,2.238,0,0,1,2.222,2.455,2.34,2.34,0,0,1-.608,1.632c-.323.358-.664.394-1.543.394a4.954,4.954,0,0,1-.967-.071c-.072-.019-.107-.054-.107-.161Zm.019,8.942c-.019-.233-.019-2.061-.019-3.244v-.841c0-.073.034-.109.089-.109.252,0,1.039,0,1.237.036a3,3,0,0,1,2.921,3.171,2.333,2.333,0,0,1-.634,1.794,20.283,20.283,0,0,0-3.59-.755Zm3.394.967a2.589,2.589,0,0,1-1.478.4,3.747,3.747,0,0,1-1.379-.216c-.424-.2-.477-.368-.519-.9a19.221,19.221,0,0,1,3.176.65ZM32.9,281.419c1.137-2.737,3.889-3.634,6.849-3.575-.013.228-.029.425-.053.584-.072.449-.106.791-.412.844a4.461,4.461,0,0,1-.483.072c-.09,0-.127.036-.127.09,0,.09.09.125.252.125.251,0,.627-.018.95-.034.323,0,.61-.019.646-.019.072,0,.519.019,1.022.035.5.036,1.074.055,1.361.055a4.486,4.486,0,0,0,2.481-.656c2.973,1.015,5.9,2.18,8.827,3.337H32.641A4.6,4.6,0,0,1,32.9,281.419Zm21.977,9.641a67.3,67.3,0,0,1-13.866-1.178,17.047,17.047,0,0,1-4.233-1.551H70.339c1.6.553,3.212,1.091,4.83,1.6Q65.05,290.884,54.881,291.06ZM75.5,289.9q-2.377-.751-4.731-1.569H88.534Q82.035,289.266,75.5,289.9Z" transform="translate(-8.797 -223.089)" fill="#9e1d20"/>
    <path id="Path_17" data-name="Path 17" d="M332.565,350.484c.06-.02.119-.033.18-.051a2.416,2.416,0,0,0,.669-.228,1.642,1.642,0,0,1-.321.1C332.931,350.366,332.752,350.426,332.565,350.484Z" transform="translate(-233.73 -280.274)" fill="#9e1d20"/>
    <path id="Path_18" data-name="Path 18" d="M13.515,323.718a1.086,1.086,0,0,1-.288.075l-.084.018v.105l.461-.02.183.009q.24.011.352.011a1.438,1.438,0,0,0,.748-.157.706.706,0,0,0,.371-.626.546.546,0,0,0-.093-.326.559.559,0,0,0-.25-.195,1.062,1.062,0,0,0-.3-.055,1,1,0,0,0,.272-.125.635.635,0,0,0,.189-.226.611.611,0,0,0,.067-.271.5.5,0,0,0-.177-.395.818.818,0,0,0-.544-.154c-.071,0-.173,0-.3.007s-.256.007-.376.007q-.277,0-.6-.02v.105l.075.019a2.269,2.269,0,0,1,.273.067.081.081,0,0,1,.038.035,1.032,1.032,0,0,1,.023.289l0,.79q0,.774-.014.941A.139.139,0,0,1,13.515,323.718Zm1.289-.86a.48.48,0,0,1,.093.307.565.565,0,0,1-.166.431.715.715,0,0,1-.506.157,2.37,2.37,0,0,1-.343-.029v-1.062c.074,0,.167,0,.28,0a1.521,1.521,0,0,1,.417.041A.454.454,0,0,1,14.8,322.858Zm-.9-1.282a2.35,2.35,0,0,1,.343-.027.7.7,0,0,1,.4.085.408.408,0,0,1,.17.357.506.506,0,0,1-.086.292.457.457,0,0,1-.225.176,1.416,1.416,0,0,1-.44.05l-.179,0c0-.084,0-.148,0-.192Q13.879,321.846,13.9,321.576Z" transform="translate(-11.43 -260.215)" fill="#9e1d20"/>
    <path id="Path_19" data-name="Path 19" d="M31.368,323.715v.105c.252-.012.431-.02.535-.02s.262.007.478.02v-.105a2.148,2.148,0,0,1-.262-.085.224.224,0,0,1-.063-.071l-.416-.909q-.352-.786-.593-1.405h-.113l-.49,1.139q-.416.96-.518,1.137a.4.4,0,0,1-.093.114.626.626,0,0,1-.223.08v.105c.165-.012.3-.02.407-.02.083,0,.226.007.43.02v-.105l-.055-.016a1.161,1.161,0,0,1-.208-.054.046.046,0,0,1-.022-.039.551.551,0,0,1,.047-.136l.188-.452.489,0,.55,0,.182.436a.4.4,0,0,1,.037.127.078.078,0,0,1-.036.063A.988.988,0,0,1,31.368,323.715Zm-.548-.868c-.071,0-.19,0-.355-.007l.451-1.071.452,1.071Z" transform="translate(-22.891 -260.119)" fill="#9e1d20"/>
    <path id="Path_20" data-name="Path 20" d="M48.815,323.716a.943.943,0,0,1-.29.079l-.077.016v.105c.217-.012.414-.02.59-.02s.354.007.57.02v-.105a1,1,0,0,0-.1-.021.791.791,0,0,1-.268-.076.12.12,0,0,1-.032-.081l-.014-.9c.108.013.216.02.321.023l.393.538a.465.465,0,0,0,.034.045c.02.025.076.105.168.24s.164.248.218.337a2.539,2.539,0,0,1,.3-.02c.085,0,.223.007.41.02v-.105a2.343,2.343,0,0,1-.337-.091.37.37,0,0,1-.116-.064,1.606,1.606,0,0,1-.139-.17l-.595-.774a1.11,1.11,0,0,0,.311-.127.7.7,0,0,0,.23-.245.686.686,0,0,0,.079-.335.586.586,0,0,0-.175-.448.745.745,0,0,0-.525-.164c-.049,0-.136,0-.263.007q-.142,0-.307,0-.286,0-.758-.02v.105l.087.019a.928.928,0,0,1,.277.076.068.068,0,0,1,.035.043,1.564,1.564,0,0,1,.01.222l.007.839q-.005.866-.009.917A.164.164,0,0,1,48.815,323.716Zm.392-2.128q.279-.022.373-.022a.57.57,0,0,1,.4.131.468.468,0,0,1,.138.356.521.521,0,0,1-.156.4.685.685,0,0,1-.481.145q-.1,0-.288-.019Z" transform="translate(-36.001 -260.215)" fill="#9e1d20"/>
    <path id="Path_21" data-name="Path 21" d="M68.036,323.54a.6.6,0,0,1-.369.117.587.587,0,0,1-.282-.068.478.478,0,0,1-.192-.176,1.4,1.4,0,0,1-.122-.375h-.137a6.648,6.648,0,0,1-.027.668,3.2,3.2,0,0,0,.4.111,1.773,1.773,0,0,0,.336.032,1.035,1.035,0,0,0,.46-.1.743.743,0,0,0,.319-.28.717.717,0,0,0,.106-.379.656.656,0,0,0-.141-.41,1.378,1.378,0,0,0-.538-.349,1.65,1.65,0,0,1-.5-.28.368.368,0,0,1-.1-.26.377.377,0,0,1,.126-.285.475.475,0,0,1,.338-.118.606.606,0,0,1,.27.06.4.4,0,0,1,.18.165,1.228,1.228,0,0,1,.106.335h.136c-.006-.123-.009-.222-.009-.294,0-.036,0-.141.009-.314a2.054,2.054,0,0,0-.639-.126.976.976,0,0,0-.424.1.719.719,0,0,0-.31.265.646.646,0,0,0-.1.35.538.538,0,0,0,.13.362,1.466,1.466,0,0,0,.517.32,1.526,1.526,0,0,1,.5.3.457.457,0,0,1,.114.307A.387.387,0,0,1,68.036,323.54Z" transform="translate(-48.847 -260.094)" fill="#9e1d20"/>
    <path id="Path_22" data-name="Path 22" d="M107.753,323.716a.946.946,0,0,1-.29.079l-.077.016v.105c.218-.012.415-.02.591-.02s.354.007.569.02v-.105a.983.983,0,0,0-.1-.021.789.789,0,0,1-.268-.076.118.118,0,0,1-.032-.081l-.014-.9c.108.013.215.02.321.023l.393.538a.516.516,0,0,0,.033.045c.02.025.077.105.168.24s.164.248.218.337a2.542,2.542,0,0,1,.3-.02c.086,0,.223.007.411.02v-.105a2.331,2.331,0,0,1-.337-.091.377.377,0,0,1-.117-.064,1.607,1.607,0,0,1-.139-.17l-.595-.774a1.109,1.109,0,0,0,.311-.127.7.7,0,0,0,.23-.245.689.689,0,0,0,.079-.335.585.585,0,0,0-.175-.448.745.745,0,0,0-.525-.164q-.073,0-.263.007c-.095,0-.2,0-.307,0q-.286,0-.759-.02v.105l.087.019a.925.925,0,0,1,.277.076.069.069,0,0,1,.035.043,1.706,1.706,0,0,1,.01.222l.007.839q-.005.866-.009.917A.164.164,0,0,1,107.753,323.716Zm.392-2.128q.279-.022.373-.022a.569.569,0,0,1,.4.131.469.469,0,0,1,.139.356.521.521,0,0,1-.156.4.687.687,0,0,1-.481.145c-.068,0-.164-.006-.287-.019Z" transform="translate(-77.018 -260.215)" fill="#9e1d20"/>
    <path id="Path_23" data-name="Path 23" d="M125.825,323.536v.033a.25.25,0,0,1-.027.141.186.186,0,0,1-.086.039l-.289.063v.105c.3-.012.578-.019.829-.019q.537,0,1.187.019.2-.614.221-.671h-.123l-.043.074a1.991,1.991,0,0,1-.191.308.293.293,0,0,1-.12.078.843.843,0,0,1-.193.013l-.066,0h-.748l-.009-1.05h.489a1.05,1.05,0,0,1,.266.018.113.113,0,0,1,.063.062c.008.02.029.116.064.289h.118q-.02-.286-.02-.45c0-.106.007-.257.02-.454h-.118l-.016.061a.936.936,0,0,1-.068.237.13.13,0,0,1-.073.054,1.614,1.614,0,0,1-.295.014h-.432l.005-.352.013-.575h.721a.881.881,0,0,1,.261.024.144.144,0,0,1,.075.073,1.8,1.8,0,0,1,.117.323h.125a5.079,5.079,0,0,1-.043-.611q-.96.02-1.214.02-.466,0-.8-.02v.105l.192.043a1,1,0,0,1,.165.045.083.083,0,0,1,.033.035,1.238,1.238,0,0,1,.018.272q0,.24,0,.756,0,.355,0,.476Z" transform="translate(-89.571 -260.215)" fill="#9e1d20"/>
    <path id="Path_24" data-name="Path 24" d="M144.377,323.54a.6.6,0,0,1-.369.117.585.585,0,0,1-.282-.068.476.476,0,0,1-.192-.176,1.4,1.4,0,0,1-.122-.375h-.137a6.667,6.667,0,0,1-.027.668,3.2,3.2,0,0,0,.4.111,1.775,1.775,0,0,0,.336.032,1.031,1.031,0,0,0,.46-.1.745.745,0,0,0,.32-.28.717.717,0,0,0,.106-.379.653.653,0,0,0-.141-.41,1.373,1.373,0,0,0-.538-.349,1.651,1.651,0,0,1-.5-.28.368.368,0,0,1-.1-.26.376.376,0,0,1,.126-.285.475.475,0,0,1,.338-.118.606.606,0,0,1,.27.06.4.4,0,0,1,.18.165,1.254,1.254,0,0,1,.1.335h.136c-.006-.123-.009-.222-.009-.294,0-.036,0-.141.009-.314a2.056,2.056,0,0,0-.639-.126.975.975,0,0,0-.424.1.721.721,0,0,0-.31.265.646.646,0,0,0-.105.35.539.539,0,0,0,.13.362,1.464,1.464,0,0,0,.517.32,1.523,1.523,0,0,1,.5.3.457.457,0,0,1,.114.307A.387.387,0,0,1,144.377,323.54Z" transform="translate(-101.976 -260.094)" fill="#9e1d20"/>
    <path id="Path_25" data-name="Path 25" d="M160.562,321.592a.674.674,0,0,1,.239.024.155.155,0,0,1,.072.08q.025.057.109.383h.134c-.02-.2-.038-.43-.054-.7q-.74.02-1.02.02-.338,0-1.127-.02-.027.386-.061.7h.137a3.07,3.07,0,0,1,.093-.336.258.258,0,0,1,.089-.128.271.271,0,0,1,.134-.022l.077,0h.425q.007.366.007.846c0,.183,0,.465-.007.846q-.005.369-.013.4a.085.085,0,0,1-.025.04.988.988,0,0,1-.282.07.926.926,0,0,0-.095.021v.105c.183-.012.362-.019.537-.019s.395.007.631.019v-.105c-.034-.008-.059-.014-.075-.016a1.2,1.2,0,0,1-.295-.077.1.1,0,0,1-.027-.073q-.014-.229-.014-.878,0-.7.014-1.175Z" transform="translate(-112.837 -260.215)" fill="#9e1d20"/>
    <path id="Path_26" data-name="Path 26" d="M178.453,323.475a1.391,1.391,0,0,0,.368-1.02,1.247,1.247,0,0,0-.327-.914,1.176,1.176,0,0,0-.878-.332,1.316,1.316,0,0,0-.971.376,1.3,1.3,0,0,0-.377.961,1.332,1.332,0,0,0,.327.964,1.182,1.182,0,0,0,.89.339A1.3,1.3,0,0,0,178.453,323.475Zm-1.795-.982a1.613,1.613,0,0,1,.1-.568.814.814,0,0,1,.31-.405.884.884,0,0,1,.914-.025.881.881,0,0,1,.327.382,1.5,1.5,0,0,1,.132.67,1.6,1.6,0,0,1-.1.587.843.843,0,0,1-.305.4.8.8,0,0,1-.463.137.827.827,0,0,1-.652-.3A1.314,1.314,0,0,1,176.659,322.493Z" transform="translate(-124.956 -260.094)" fill="#9e1d20"/>
    <path id="Path_27" data-name="Path 27" d="M195.206,323.716a.946.946,0,0,1-.291.079l-.076.016v.105c.217-.012.414-.02.59-.02s.354.007.569.02v-.105a.986.986,0,0,0-.1-.021.786.786,0,0,1-.268-.076.121.121,0,0,1-.032-.081l-.014-.9c.108.013.215.02.321.023l.393.538a.417.417,0,0,0,.033.045c.02.025.076.105.168.24s.164.248.218.337a2.54,2.54,0,0,1,.3-.02c.085,0,.223.007.411.02v-.105a2.393,2.393,0,0,1-.338-.091.385.385,0,0,1-.116-.064,1.606,1.606,0,0,1-.139-.17l-.594-.774a1.115,1.115,0,0,0,.311-.127.7.7,0,0,0,.23-.245.685.685,0,0,0,.079-.335.583.583,0,0,0-.175-.448.743.743,0,0,0-.525-.164q-.073,0-.263.007c-.1,0-.2,0-.307,0-.19,0-.444-.006-.758-.02v.105l.087.019a.933.933,0,0,1,.277.076.068.068,0,0,1,.035.043,1.562,1.562,0,0,1,.01.222l.007.839q-.006.866-.009.917A.163.163,0,0,1,195.206,323.716Zm.392-2.128q.279-.022.373-.022a.57.57,0,0,1,.4.131.47.47,0,0,1,.138.356.52.52,0,0,1-.156.4.687.687,0,0,1-.481.145c-.068,0-.163-.006-.287-.019Z" transform="translate(-137.88 -260.215)" fill="#9e1d20"/>
    <path id="Path_28" data-name="Path 28" d="M214.444,323.715v.105c.252-.012.431-.02.535-.02s.261.007.478.02v-.105a2.236,2.236,0,0,1-.262-.085.223.223,0,0,1-.062-.071l-.416-.909q-.352-.786-.593-1.405h-.112l-.491,1.139q-.417.96-.518,1.137a.409.409,0,0,1-.093.114.627.627,0,0,1-.223.08v.105c.165-.012.3-.02.407-.02.083,0,.226.007.43.02v-.105l-.056-.016a1.164,1.164,0,0,1-.208-.054.046.046,0,0,1-.022-.039.523.523,0,0,1,.047-.136l.188-.452.489,0,.551,0,.182.436a.4.4,0,0,1,.037.127.078.078,0,0,1-.036.063A.984.984,0,0,1,214.444,323.715Zm-.548-.868c-.071,0-.189,0-.355-.007l.451-1.071.452,1.071Z" transform="translate(-150.302 -260.119)" fill="#9e1d20"/>
    <path id="Path_29" data-name="Path 29" d="M232.532,322.018l-.507-.635c-.181.013-.306.02-.376.02q-.13,0-.356-.02v.105c.043.009.075.016.1.02a1.749,1.749,0,0,1,.337.074.092.092,0,0,1,.047.06,4.7,4.7,0,0,1,.012.5q0,.139-.009.9a6.11,6.11,0,0,1-.025.621.1.1,0,0,1-.029.056.7.7,0,0,1-.248.07l-.1.021v.105c.261-.012.444-.019.548-.019.125,0,.279.007.46.019v-.105c-.036-.008-.062-.014-.08-.016a.741.741,0,0,1-.266-.075.112.112,0,0,1-.032-.056c-.007-.03-.014-.277-.019-.739l-.009-1.056.977,1.175.745.925.116-.054q-.018-.344-.018-.844,0-.424.006-.876c0-.3.007-.463.008-.486a.276.276,0,0,1,.025-.107.082.082,0,0,1,.032-.032,1.674,1.674,0,0,1,.266-.066l.071-.016v-.105q-.321.02-.5.02t-.505-.02v.105c.037.009.065.016.084.02a.982.982,0,0,1,.249.064.107.107,0,0,1,.041.051,3.309,3.309,0,0,1,.016.36q.017.707.017.973c0,.075,0,.2,0,.363Q232.6,322.1,232.532,322.018Z" transform="translate(-163.25 -260.215)" fill="#9e1d20"/>
    <path id="Path_30" data-name="Path 30" d="M252.238,323.54a.6.6,0,0,1-.369.117.584.584,0,0,1-.281-.068.476.476,0,0,1-.192-.176,1.409,1.409,0,0,1-.122-.375h-.137a6.678,6.678,0,0,1-.026.668,3.181,3.181,0,0,0,.4.111,1.777,1.777,0,0,0,.336.032,1.028,1.028,0,0,0,.459-.1.747.747,0,0,0,.321-.28.722.722,0,0,0,.106-.379.655.655,0,0,0-.141-.41,1.372,1.372,0,0,0-.538-.349,1.66,1.66,0,0,1-.5-.28.369.369,0,0,1-.1-.26.378.378,0,0,1,.126-.285.477.477,0,0,1,.338-.118.617.617,0,0,1,.272.06.4.4,0,0,1,.178.165,1.226,1.226,0,0,1,.106.335h.135c-.006-.123-.009-.222-.009-.294,0-.036,0-.141.009-.314a2.052,2.052,0,0,0-.64-.126.979.979,0,0,0-.424.1.723.723,0,0,0-.31.265.641.641,0,0,0-.105.35.536.536,0,0,0,.13.362,1.477,1.477,0,0,0,.517.32,1.531,1.531,0,0,1,.5.3.46.46,0,0,1,.114.307A.387.387,0,0,1,252.238,323.54Z" transform="translate(-177.041 -260.094)" fill="#9e1d20"/>
    <path id="Path_31" data-name="Path 31" d="M293.34,321.209a1.407,1.407,0,0,0-1.026.378,1.3,1.3,0,0,0-.387.973,1.46,1.46,0,0,0,.15.663,1.064,1.064,0,0,0,.444.462,1.31,1.31,0,0,0,.65.164,1.749,1.749,0,0,0,.545-.086,2.464,2.464,0,0,0,.552-.266l-.075-.136a2.683,2.683,0,0,1-.461.187,1.466,1.466,0,0,1-.389.051.99.99,0,0,1-.75-.3,1.135,1.135,0,0,1-.286-.818,1.217,1.217,0,0,1,.2-.721.894.894,0,0,1,.779-.368,1.064,1.064,0,0,1,.414.071.511.511,0,0,1,.242.189,1.411,1.411,0,0,1,.141.43h.15a4.6,4.6,0,0,1-.026-.48q0-.079,0-.236A2.775,2.775,0,0,0,293.34,321.209Z" transform="translate(-205.448 -260.094)" fill="#9e1d20"/>
    <path id="Path_32" data-name="Path 32" d="M311.2,323.715v.105c.253-.012.431-.02.536-.02s.262.007.479.02v-.105a2.2,2.2,0,0,1-.264-.085.238.238,0,0,1-.062-.071l-.416-.909q-.351-.786-.593-1.405h-.113l-.492,1.139c-.276.64-.45,1.02-.517,1.137a.4.4,0,0,1-.093.114.623.623,0,0,1-.224.08v.105c.165-.012.3-.02.407-.02.084,0,.227.007.431.02v-.105l-.056-.016a1.172,1.172,0,0,1-.208-.054.046.046,0,0,1-.021-.039.545.545,0,0,1,.046-.136l.188-.452.49,0,.55,0,.181.436a.392.392,0,0,1,.038.127.078.078,0,0,1-.036.063A.988.988,0,0,1,311.2,323.715Zm-.548-.868c-.071,0-.189,0-.355-.007l.451-1.071.451,1.071Z" transform="translate(-217.635 -260.119)" fill="#9e1d20"/>
    <path id="Path_33" data-name="Path 33" d="M329.137,321.592a.676.676,0,0,1,.24.024.152.152,0,0,1,.072.08c.017.038.053.165.109.383h.134c-.021-.2-.038-.43-.054-.7-.494.013-.833.02-1.021.02-.224,0-.6-.006-1.127-.02q-.027.386-.06.7h.137a2.933,2.933,0,0,1,.093-.336.258.258,0,0,1,.089-.128.271.271,0,0,1,.134-.022l.077,0h.425q.008.366.007.846c0,.183,0,.465-.007.846,0,.246-.008.378-.013.4a.1.1,0,0,1-.025.04.988.988,0,0,1-.282.07.88.88,0,0,0-.095.021v.105c.183-.012.362-.019.537-.019s.4.007.631.019v-.105c-.034-.008-.059-.014-.076-.016a1.186,1.186,0,0,1-.293-.077.1.1,0,0,1-.028-.073c-.009-.153-.014-.445-.014-.878,0-.467.006-.859.014-1.175Z" transform="translate(-230.156 -260.215)" fill="#9e1d20"/>
    <path id="Path_34" data-name="Path 34" d="M345.088,323.536v.033a.247.247,0,0,1-.027.141.186.186,0,0,1-.085.039l-.289.063v.105c.3-.012.578-.019.828-.019.359,0,.754.007,1.188.019q.2-.614.221-.671H346.8l-.043.074a1.909,1.909,0,0,1-.191.308.286.286,0,0,1-.119.078.853.853,0,0,1-.193.013l-.067,0h-.747l-.009-1.05h.489a1.051,1.051,0,0,1,.266.018.109.109,0,0,1,.062.062,2.728,2.728,0,0,1,.064.289h.118q-.018-.286-.019-.45c0-.106.006-.257.019-.454h-.118c-.007.028-.012.048-.015.061a.891.891,0,0,1-.07.237.123.123,0,0,1-.072.054,1.618,1.618,0,0,1-.295.014h-.432l.005-.352.012-.575h.721a.879.879,0,0,1,.261.024.149.149,0,0,1,.076.073,1.9,1.9,0,0,1,.116.323h.125a4.952,4.952,0,0,1-.043-.611q-.96.02-1.215.02c-.31,0-.578-.007-.8-.02v.105l.193.043a.973.973,0,0,1,.165.045.091.091,0,0,1,.033.035,1.388,1.388,0,0,1,.018.272c0,.16,0,.412,0,.756q0,.355,0,.476Z" transform="translate(-242.165 -260.215)" fill="#9e1d20"/>
    <path id="Path_35" data-name="Path 35" d="M362.447,323.716a.933.933,0,0,1-.29.079l-.077.016v.105c.218-.012.415-.02.591-.02s.354.007.57.02v-.105a1,1,0,0,0-.1-.021.78.78,0,0,1-.267-.076.118.118,0,0,1-.033-.081l-.015-.9c.108.013.217.02.322.023l.393.538c.012.017.023.031.035.045s.076.105.168.24.164.248.217.337a2.535,2.535,0,0,1,.3-.02c.085,0,.222.007.41.02v-.105a2.378,2.378,0,0,1-.337-.091.375.375,0,0,1-.116-.064,1.494,1.494,0,0,1-.139-.17l-.6-.774a1.1,1.1,0,0,0,.31-.127.662.662,0,0,0,.31-.58.586.586,0,0,0-.175-.448.745.745,0,0,0-.525-.164q-.074,0-.262.007c-.1,0-.2,0-.307,0q-.287,0-.759-.02v.105l.088.019a.931.931,0,0,1,.276.076.069.069,0,0,1,.035.043,1.556,1.556,0,0,1,.01.222l.007.839q-.005.866-.009.917A.16.16,0,0,1,362.447,323.716Zm.393-2.128c.185-.014.31-.022.372-.022a.571.571,0,0,1,.4.131.47.47,0,0,1,.138.356.522.522,0,0,1-.156.4.687.687,0,0,1-.482.145c-.068,0-.163-.006-.288-.019Z" transform="translate(-254.271 -260.215)" fill="#9e1d20"/>
    <path id="Path_36" data-name="Path 36" d="M380.263,323.793l-.078.018v.105c.22-.012.42-.019.6-.019s.361.007.553.019v-.105c-.053-.011-.092-.018-.119-.021a.6.6,0,0,1-.251-.059.232.232,0,0,1-.037-.159l0-1.042.009-.718v-.063a.242.242,0,0,1,.038-.164.74.74,0,0,1,.275-.077l.093-.02v-.105c-.206.013-.391.02-.552.02-.146,0-.348-.006-.607-.02v.105l.095.023a.812.812,0,0,1,.27.077.129.129,0,0,1,.038.091q.005.107,0,1.117l0,.655,0,.09a.265.265,0,0,1-.037.176A.783.783,0,0,1,380.263,323.793Z" transform="translate(-266.871 -260.215)" fill="#9e1d20"/>
    <path id="Path_37" data-name="Path 37" d="M394.894,322.018l-.507-.635c-.18.013-.306.02-.375.02q-.13,0-.356-.02v.105c.043.009.075.016.1.02a1.748,1.748,0,0,1,.337.074.088.088,0,0,1,.047.06,4.519,4.519,0,0,1,.012.5q0,.139-.009.9a5.89,5.89,0,0,1-.025.621.092.092,0,0,1-.029.056.694.694,0,0,1-.248.07l-.095.021v.105c.261-.012.444-.019.548-.019.125,0,.279.007.46.019v-.105c-.036-.008-.063-.014-.08-.016a.734.734,0,0,1-.266-.075.108.108,0,0,1-.033-.056c-.007-.03-.013-.277-.02-.739l-.009-1.056.977,1.175.744.925.116-.054c-.011-.23-.018-.511-.018-.844,0-.282,0-.574.006-.876s.007-.463.008-.486a.271.271,0,0,1,.025-.107.077.077,0,0,1,.032-.032,1.666,1.666,0,0,1,.266-.066l.072-.016v-.105q-.321.02-.5.02t-.505-.02v.105c.037.009.065.016.084.02a.97.97,0,0,1,.249.064.108.108,0,0,1,.041.051,3.3,3.3,0,0,1,.017.36q.016.707.016.973c0,.075,0,.2,0,.363Q394.965,322.1,394.894,322.018Z" transform="translate(-276.246 -260.215)" fill="#9e1d20"/>
    <path id="Path_38" data-name="Path 38" d="M415.1,321.228a2.369,2.369,0,0,0-.314-.019,1.437,1.437,0,0,0-1.053.388,1.355,1.355,0,0,0-.4,1.011,1.214,1.214,0,0,0,.338.908,1.317,1.317,0,0,0,.965.333,3.035,3.035,0,0,0,.368-.022c.06-.007.2-.036.429-.086.172-.039.285-.063.337-.071-.01-.22-.014-.395-.014-.523a3.145,3.145,0,0,1,.014-.4.109.109,0,0,1,.027-.06.13.13,0,0,1,.063-.031l.273-.066v-.1c-.171.008-.325.012-.459.012l-.611-.012v.1l.069.016a1.007,1.007,0,0,1,.243.066.092.092,0,0,1,.043.054,1.412,1.412,0,0,1,.01.238c0,.249,0,.437-.007.566a1.731,1.731,0,0,1-.622.125,1.1,1.1,0,0,1-.778-.284,1.08,1.08,0,0,1-.308-.834,1.279,1.279,0,0,1,.195-.725.932.932,0,0,1,.832-.417,1.279,1.279,0,0,1,.465.082.512.512,0,0,1,.235.157,1.326,1.326,0,0,1,.154.4h.134c-.016-.2-.023-.381-.023-.541,0-.039,0-.092,0-.157Q415.131,321.232,415.1,321.228Z" transform="translate(-289.941 -260.094)" fill="#9e1d20"/>
    <path id="Path_39" data-name="Path 39" d="M397.982,271.991c.112-1.328-.853-1.14-1.832-1.147C397.187,270.879,398.055,270.687,397.982,271.991Z" transform="translate(-277.982 -225.04)" fill="#9e1d20"/>
    <path id="Path_40" data-name="Path 40" d="M395.154,270.811l-.168-.007c.117.01.235.015.354.016Z" transform="translate(-277.171 -225.015)" fill="#9e1d20"/>
    <path id="Path_41" data-name="Path 41" d="M385.905,249.573l-.034.009c.011,0,.023,0,.034.006Z" transform="translate(-270.828 -210.24)" fill="#9e1d20"/>
    <path id="Path_42" data-name="Path 42" d="M387.919,269.978c.076.282-.167.435.171.825l.716-.241a.821.821,0,0,0-.02-.637l.546.024a2.681,2.681,0,0,1-.308-.04c-.2-.051-.258-.053-.264-.008-.007,0-.013.007-.016.023h.014a1.931,1.931,0,0,1,.081.383c-.062.437-.495.278-.724.446-.467-.491.315-1.393-.621-1.131l-.632,0A1,1,0,0,0,387.919,269.978Z" transform="translate(-271.518 -224.159)" fill="#9e1d20"/>
    <path id="Path_43" data-name="Path 43" d="M366.6,251.071l.068,0C366.668,251.012,366.653,250.993,366.6,251.071Z" transform="translate(-257.415 -211.246)" fill="#9e1d20"/>
    <path id="Path_44" data-name="Path 44" d="M385.984,249.341l.094-.025C386.009,249.188,385.989,249.236,385.984,249.341Z" transform="translate(-270.907 -210.007)" fill="#9e1d20"/>
    <path id="Path_45" data-name="Path 45" d="M366.818,251.2s0,.009,0,.015l.02-.013Z" transform="translate(-257.567 -211.374)" fill="#9e1d20"/>
    <path id="Path_46" data-name="Path 46" d="M385.642,267.314h.244a2.3,2.3,0,0,1-.377-1.051l-.01.235C385.567,266.763,385.29,267.14,385.642,267.314Z" transform="translate(-270.541 -221.855)" fill="#9e1d20"/>
    <path id="Path_47" data-name="Path 47" d="M21.019,252.824c.486-.32.452-.379.28-.368l-.262.253Z" transform="translate(-16.912 -212.245)" fill="#9e1d20"/>
    <path id="Path_48" data-name="Path 48" d="M11.415,160.482l-.026.245-.011.109-.006.054c.28-.261-.469.487.262-.216l.034-.223c.083-.014.164-.026.228-.03l.2-.2-.219.011-.18.009.062-.4c.4-.637-.493-1.245.978-1.906a36.39,36.39,0,0,1,6.964.117c-.06.068-.112.128.019,0,.243.008.486.015.731.016l.1-1.909c-.009-.233.09-.828-.007-.763l.939-.183a8.394,8.394,0,0,1,3.692-.255c2.392.478,5.413-.128,7.287,1.241l1.512-.006.756,0h.52c-.15.184,1.518-1.562.81-.847l-.005-.189-.073-3.023-.036-1.511-.018-.756-.006-.24,2.29-1.062c1.546-.656,4.292-2.124,4.852-2.114l5.456,2.609,1.364.652c1.407.193,1.235-.144,1.93-.191l.184-.044.092-.021.047-.011c-.1.151,1.047-1.323.561-.723v-.378l0-.756-.006-1.512c.017-.378.822-1.608,1.051-1.175a1.985,1.985,0,0,1,1.223,1.667l.01.662-.025.343-.019.171-.01.084-.005.036c-.188-.146,1.577,1.441.853.762l1.46-.391a10.778,10.778,0,0,1,2.858-.358l3.018-.188.754-.047.377-.023.189-.012.094-.006c-.516.548.76-.745.625-.634l0-.047.042-1.511.168-6.046.084-3.022c-.079-.7.238-.562-.168-1.959l-1.123-1.013c0,.03-.018.019-.04-.008l.016-.1.061-.373c-.2-.9-.169-.435-.265-.718-.23.239-.036-.8-.075-1.14l.1-3.022c-.035-.833.215-2.4-.054-2.632a15.537,15.537,0,0,1,2.331-1.731c3.233-1.969,7.715-2.438,11.176-2.536.158.017.668.306.91.389l-.074,1.329-.022.378,0,.094c.974,1.033.324.286.566.516h.189l.756,0h.472c-.41.423.617-.571.506-.49v-.237l0-.757,0-.683.119-.035,1.453-.421c1-.493,1.61.1,2.763.13a52.96,52.96,0,0,1,5.856,1.262,4.178,4.178,0,0,1,2.378,1.29c.016.022.033.047.049.072-.14.375-.314.869-.139.438l.367.09,1.469.36c.77.813.246,3.567.416,5.371-.079.929.191,2.193-.173,2.847-.092.127-.678.695-.915,1.054-.347.886-.1,1.114-.182,1.7l-.04,6.048-.02,3.023-.01,1.512c.488,1.267,1,.376,1.5.672,2.013.066,4.028.137,6.034.251l1.5.111c.348-.168.264.486.916-.33l.121-.746a2.345,2.345,0,0,1,1.35-2.222c.788-.414,1.648.356,1.849,1.258.316.8-.631,1.885.278,2.948l2.812,1.112a22.345,22.345,0,0,0-.185,2.729l-.067,1.511-.034.755a.662.662,0,0,0,.268.408c-.487.773-.17,1.954-.262,2.716l.006,1.512v.378c.433.443.337.141.531.247l.753.062,3.014.246c.393-.8-.055,1.279.744.822.492-.141,1.031.472,1.482-.289-.006-.09.063-.361.073-.49a.58.58,0,0,0-.211.31c.087.812-.978.144-1.41.289-.417.092-.287-.308-.3-.587.1-.406-.472-.158-.675-.268l-3.487-.313c-.579-.549-.153-2.162-.279-3.192a1.748,1.748,0,0,1,.472-1.584.893.893,0,0,1-.139-.012.367.367,0,0,0-.074-.13c-.029.026-.053.055-.078.082-.311-.171-.069-.685-.11-1.189l.181-3.5c.27-.716-.444-1.02-.982-1.158l-1.623-.656c-1.172-.215.1-2.034-.41-3.024a1.73,1.73,0,0,0-2.854-1.006c-1.073.657-.943,2.5-1.221,2.951-1.175-.152-2.335-.2-3.5-.27l-3.5-.165-1.751-.07c-.5.507-.125-.865-.23-1.2l.1-7,.05-3.5c0-.829,1.75-1.608,1.3-3.063-.123-2.377.313-4.571-.268-7.1-.209-.61-1.3-.6-1.67-.769a.175.175,0,0,1-.02.007c-.027-.16-.175-.276-.163-.316-.692-1.158-2.068-1.442-3.125-1.793a62.281,62.281,0,0,0-6.883-1.45c-1.148-.424-2.508.381-3.527.552-.922.845-.26,1.239-.468,1.882v.225c-.016,0-.025-.007-.019-.021l-.841,0c.1-.449.281-2.757-1.023-2.547-1.392-.565-2.39.007-3.6-.045a24.973,24.973,0,0,0-6.923,1.544,15.018,15.018,0,0,0-3.1,1.793c-.443.521-1.027.361-1.31,1.521L63,127.025l-.139,3.5a6.414,6.414,0,0,0,.067,1.971c.694.661-.388.227.53,1.636.29.271,1.174,1.065.977.906l-.062,1.749-.125,3.5-.124,3.5-.063,1.75-.031.874,0,.089a60.793,60.793,0,0,0-6.95.549l-.847.22-.056.015a5.346,5.346,0,0,0-.053-1.186c-.369-1.268-1.283-2.806-3.228-2.325-1.428.755-1.567,2.488-1.471,3.579l0,.875v.061c-.455.082-1.426.434-1.188.155l-6.294-3.071c-.5-.112,0-.29-1.31-.349l-.8.361-1.594.725-3.188,1.448-1.594.725-.4.181c-.231.3.236-.547-.569.7l0,.219.014.875.057,3.5.014.876,0,.088-1.161,0-1.72-.006-.064-.107-.112-.188c-1.2-.7-.458-.2-.782-.356l-.438-.017c-2.418-.051-4.471-.265-7.191-.183l-1.7.418-.85.209-.213.052-.053.013c.1-.156-1.082,1.365-.581.749v.11l0,.437-.006,1.484-.525,0-3.5-.013c-1.157.269-2.2-.79-4.068,1.238l-.177,1.71-.432.022-3.5.18,3.825-.011C11.337,160.474,11.369,160.482,11.415,160.482ZM93.672,123.7l-.019-.006C93.707,123.664,93.731,123.658,93.672,123.7Z" transform="translate(-7.51 -120.211)" fill="#9e1d20"/>
    <path id="Path_49" data-name="Path 49" d="M369.057,250.211c1.013.235,2.064-.287,3-.486l.6-.162c-.634-.14-2.009.593-2.953.56-.821.122-2.233-.479-2.821-.072l.667.049Z" transform="translate(-257.613 -210.221)" fill="#9e1d20"/>
    <path id="Path_50" data-name="Path 50" d="M385.572,250.064l-.056,1.511a15.542,15.542,0,0,0-.045,3.107l.068-1.514.156-3.5a.457.457,0,0,0-.114-.048A3.127,3.127,0,0,1,385.572,250.064Z" transform="translate(-270.504 -210.274)" fill="#9e1d20"/>
    <path id="Path_51" data-name="Path 51" d="M89.325,323.554a.9.9,0,1,0-.9.9A.9.9,0,0,0,89.325,323.554Z" transform="translate(-63.195 -261.099)" fill="#9e1d20"/>
    <path id="Path_52" data-name="Path 52" d="M274.456,323.554a.9.9,0,1,0-.9.9A.9.9,0,0,0,274.456,323.554Z" transform="translate(-192.037 -261.099)" fill="#9e1d20"/>
  </g>
</svg>
